<?xml version="1.0" encoding="UTF-8"?> <svg xmlns="http://www.w3.org/2000/svg" width="220" height="153" viewBox="0 0 220 153" fill="none"><path d="M0 0H13.6329L24.2033 41.5731H24.4009V0H34.0822V69.4538H22.9191L9.87891 18.7525H9.68134V69.4538H0V0Z" fill="#4DBD56"></path><path d="M45.6166 0H60.3362L71.5982 69.4538H60.7314L58.7556 55.6623V55.8607H46.407L44.4312 69.4538H34.3547L45.6166 0ZM57.4713 46.4349L52.6307 12.1048H52.4331L47.6912 46.4349H57.4713Z" fill="#4DBD56"></path><path d="M75.8924 9.92198H64.5317V0H98.12V9.92198H86.7592V69.4538H75.8924V9.92198Z" fill="#4DBD56"></path><path d="M114.248 70.446C108.979 70.446 104.962 68.9577 102.196 65.9812C99.4297 62.9384 98.0467 58.6058 98.0467 52.9834V0H108.913V53.7771C108.913 56.1584 109.374 57.8782 110.297 58.9365C111.284 59.9949 112.667 60.5241 114.446 60.5241C116.224 60.5241 117.574 59.9949 118.496 58.9365C119.484 57.8782 119.978 56.1584 119.978 53.7771V0H130.449V52.9834C130.449 58.6058 129.066 62.9384 126.3 65.9812C123.534 68.9577 119.517 70.446 114.248 70.446Z" fill="#4DBD56"></path><path d="M133.25 0H149.352C154.95 0 159.034 1.32293 161.602 3.96879C164.171 6.5485 165.455 10.5504 165.455 15.9744V20.2408C165.455 27.4508 163.084 32.0149 158.342 33.9332V34.1316C160.976 34.9254 162.82 36.546 163.874 38.9934C164.994 41.4408 165.554 44.715 165.554 48.8161V61.0202C165.554 63.0046 165.619 64.6251 165.751 65.8819C165.883 67.0726 166.212 68.2632 166.739 69.4538H155.675C155.28 68.3294 155.016 67.271 154.884 66.2788C154.753 65.2866 154.687 63.5007 154.687 60.9209V48.2208C154.687 45.0458 154.16 42.8299 153.106 41.5731C152.118 40.3163 150.373 39.6879 147.87 39.6879H144.116V69.4538H133.25V0ZM148.068 29.7659C150.241 29.7659 151.855 29.2037 152.909 28.0792C154.028 26.9547 154.588 25.0695 154.588 22.4237V17.0658C154.588 14.5522 154.127 12.7332 153.205 11.6087C152.349 10.4842 150.966 9.92198 149.056 9.92198H144.116V29.7659H148.068Z" fill="#4DBD56"></path><path d="M176.551 0H191.27L202.532 69.4538H191.666L189.69 55.6623V55.8607H177.341L175.365 69.4538H165.289L176.551 0ZM188.406 46.4349L183.565 12.1048H183.367L178.625 46.4349H188.406Z" fill="#4DBD56"></path><path d="M0 83.6543H15.767L22.7969 133.286H22.9978L30.0277 83.6543H45.7947V153H35.3503V100.495H35.1495L27.1153 153H17.876L9.84185 100.495H9.641V153H0V83.6543Z" fill="#303030"></path><path d="M57.5533 83.6543H72.517L83.9656 153H72.9187L70.9101 139.23V139.428H58.3567L56.3482 153H46.1046L57.5533 83.6543ZM69.6046 130.017L64.6836 95.7402H64.4828L59.6623 130.017H69.6046Z" fill="#303030"></path><path d="M84.3038 83.6543H100.673C106.364 83.6543 110.515 84.9752 113.126 87.6169C115.737 90.1926 117.043 94.1882 117.043 99.6037V103.864C117.043 111.062 114.633 115.619 109.812 117.534V117.733C112.49 118.525 114.365 120.143 115.436 122.587C116.574 125.03 117.143 128.299 117.143 132.394V144.579C117.143 146.56 117.21 148.178 117.344 149.433C117.478 150.622 117.813 151.811 118.349 153H107.101C106.699 151.877 106.431 150.82 106.297 149.83C106.163 148.839 106.096 147.056 106.096 144.48V131.8C106.096 128.63 105.561 126.417 104.49 125.162C103.485 123.908 101.711 123.28 99.167 123.28H95.3508V153H84.3038V83.6543ZM99.3679 113.374C101.577 113.374 103.218 112.812 104.289 111.69C105.427 110.567 105.996 108.685 105.996 106.043V100.693C105.996 98.1838 105.527 96.3676 104.59 95.2449C103.72 94.1221 102.314 93.5608 100.372 93.5608H95.3508V113.374H99.3679Z" fill="#303030"></path><path d="M119.787 83.6543H130.834V112.878L144.893 83.6543H155.94L142.785 109.114L156.141 153H144.592L135.252 122.091L130.834 130.908V153H119.787V83.6543Z" fill="#303030"></path><path d="M156.348 83.6543H186.477V93.5608H167.395V111.888H182.56V121.794H167.395V143.093H186.477V153H156.348V83.6543Z" fill="#303030"></path><path d="M196.447 93.5608H184.898V83.6543H219.043V93.5608H207.494V153H196.447V93.5608Z" fill="#303030"></path></svg> 