<?xml version="1.0" encoding="UTF-8"?> <svg xmlns="http://www.w3.org/2000/svg" width="40" height="40" viewBox="0 0 40 40" fill="none"><path d="M7.17958 32.5C6.33764 32.5 5.625 32.2083 5.04166 31.625C4.45833 31.0417 4.16666 30.329 4.16666 29.4871V10.5129C4.16666 9.67097 4.45833 8.95833 5.04166 8.375C5.625 7.79167 6.33764 7.5 7.17958 7.5H32.8204C33.6624 7.5 34.375 7.79167 34.9583 8.375C35.5417 8.95833 35.8333 9.67097 35.8333 10.5129V29.4871C35.8333 30.329 35.5417 31.0417 34.9583 31.625C34.375 32.2083 33.6624 32.5 32.8204 32.5H7.17958ZM6.66666 19.3267H33.3333V14.0067H6.66666V19.3267Z" fill="white"></path></svg> 