<?xml version="1.0" encoding="UTF-8"?> <svg xmlns="http://www.w3.org/2000/svg" width="40" height="40" viewBox="0 0 40 40" fill="none"><path d="M9.74 32.5962C8.43889 32.5962 7.33431 32.1412 6.42625 31.2312C5.5182 30.3212 5.06417 29.2164 5.06417 27.9167H2.24375V10.5129C2.24375 9.67097 2.53542 8.95833 3.11875 8.375C3.70208 7.79167 4.41458 7.5 5.25625 7.5H27.9488V13.8462H32.3717L37.7563 21.0579V27.9167H34.7437C34.7437 29.2164 34.2883 30.3212 33.3775 31.2312C32.4669 32.1412 31.3613 32.5962 30.0604 32.5962C28.7596 32.5962 27.655 32.1412 26.7467 31.2312C25.8386 30.3212 25.3846 29.2164 25.3846 27.9167H14.4229C14.4229 29.22 13.9676 30.3257 13.0571 31.2337C12.1465 32.1421 11.0408 32.5962 9.74 32.5962ZM9.74375 30.0962C10.3549 30.0962 10.8708 29.8857 11.2917 29.4646C11.7125 29.0437 11.9229 28.5278 11.9229 27.9167C11.9229 27.3056 11.7125 26.7894 11.2917 26.3683C10.8708 25.9475 10.3549 25.7371 9.74375 25.7371C9.13264 25.7371 8.61653 25.9475 8.19542 26.3683C7.77458 26.7894 7.56417 27.3056 7.56417 27.9167C7.56417 28.5278 7.77458 29.0437 8.19542 29.4646C8.61653 29.8857 9.13264 30.0962 9.74375 30.0962ZM30.0642 30.0962C30.6753 30.0962 31.1913 29.8857 31.6121 29.4646C32.0332 29.0437 32.2437 28.5278 32.2437 27.9167C32.2437 27.3056 32.0332 26.7894 31.6121 26.3683C31.1913 25.9475 30.6753 25.7371 30.0642 25.7371C29.4531 25.7371 28.9369 25.9475 28.5158 26.3683C28.095 26.7894 27.8846 27.3056 27.8846 27.9167C27.8846 28.5278 28.095 29.0437 28.5158 29.4646C28.9369 29.8857 29.4531 30.0962 30.0642 30.0962ZM27.9488 22.0833H35.4167L31.0896 16.3462H27.9488V22.0833Z" fill="white"></path></svg> 