<?xml version="1.0" encoding="UTF-8"?> <svg xmlns="http://www.w3.org/2000/svg" width="40" height="40" viewBox="0 0 40 40" fill="none"><path d="M8.84625 35.8334C8.00431 35.8334 7.29167 35.5417 6.70834 34.9584C6.125 34.375 5.83334 33.6624 5.83334 32.8204V10.5129C5.83334 9.671 6.125 8.95836 6.70834 8.37503C7.29167 7.79169 8.00431 7.50003 8.84625 7.50003H11.1538V3.97461H13.7179V7.50003H26.3463V3.97461H28.8463V7.50003H31.1538C31.9957 7.50003 32.7083 7.79169 33.2917 8.37503C33.875 8.95836 34.1667 9.671 34.1667 10.5129V21.3142L31.6667 23.8142V17.1796H8.33334V32.8204C8.33334 32.9488 8.38681 33.0663 8.49375 33.1729C8.60042 33.2799 8.71792 33.3334 8.84625 33.3334H18.9713L21.4871 35.8334H8.84625ZM27.5192 36.6667L22.2758 31.4392L24.0321 29.6829L27.4938 33.1442L34.4167 26.2213L36.1729 28.0034L27.5192 36.6667Z" fill="white"></path></svg> 