<svg width="20" height="20" viewBox="0 0 20 20" fill="none" xmlns="http://www.w3.org/2000/svg">
<path d="M19.8055 10.2275C19.8055 9.51803 19.7489 8.83578 19.6414 8.17578H10.2002V12.0488H15.6016C15.3573 13.2913 14.6316 14.3488 13.5514 15.0638V17.5738H16.8055C18.7039 15.8338 19.8055 13.2688 19.8055 10.2275Z" fill="#4285F4"/>
<path d="M10.2002 20C12.9002 20 15.1716 19.1038 16.8055 17.5738L13.5514 15.0638C12.6327 15.6838 11.4716 16.0463 10.2002 16.0463C7.59519 16.0463 5.38394 14.2838 4.57894 11.9088H1.22644V14.4925C2.85269 17.7425 6.26894 20 10.2002 20Z" fill="#34A853"/>
<path d="M4.57875 11.9088C4.36875 11.2888 4.25 10.6275 4.25 9.94875C4.25 9.27 4.36875 8.60875 4.57875 7.98875V5.405H1.22625C0.5325 6.79 0.125 8.335 0.125 9.94875C0.125 11.5625 0.5325 13.1075 1.22625 14.4925L4.57875 11.9088Z" fill="#FBBC05"/>
<path d="M10.2002 3.85125C11.5902 3.85125 12.8389 4.33375 13.8239 5.28125L16.8789 2.22625C15.1677 0.6125 12.8964 -0.25 10.2002 -0.25C6.26894 -0.25 2.85269 2.0075 1.22644 5.2575L4.57894 7.84125C5.38394 5.46625 7.59519 3.85125 10.2002 3.85125Z" fill="#EA4335"/>
</svg>







