<?xml version="1.0" encoding="UTF-8"?> <svg xmlns="http://www.w3.org/2000/svg" width="50" height="50" viewBox="0 0 50 50" fill="none"><path d="M25 0C38.8071 0 50 11.1929 50 25C50 38.8071 38.8071 50 25 50C11.1929 50 0 38.8071 0 25C0 11.1929 11.1929 0 25 0ZM17.0381 15.7969C16.6823 15.7969 16.3862 15.9155 16.1504 16.1533C15.9146 16.3911 15.7969 16.6881 15.7969 17.0439C15.7969 19.1513 16.2555 21.2348 17.1738 23.2939C18.0922 25.3531 19.3974 27.2283 21.0879 28.9189C22.7783 30.6052 24.6518 31.9079 26.709 32.8262C28.7662 33.7445 30.8487 34.2031 32.9561 34.2031C33.3079 34.2031 33.603 34.0845 33.8408 33.8467C34.0786 33.6089 34.1973 33.3118 34.1973 32.9561V28.8643C34.1973 28.5638 34.1057 28.3047 33.9219 28.0879C33.738 27.8711 33.4871 27.7174 33.1699 27.627L29.8818 26.9453C29.5887 26.8961 29.301 26.9131 29.0195 26.9961C28.7381 27.0789 28.5005 27.2153 28.3066 27.4053L25.915 29.7783C25.3374 29.4437 24.7845 29.0701 24.2578 28.6562C23.731 28.2424 23.2194 27.7867 22.7227 27.29C22.1887 26.7728 21.704 26.2423 21.2695 25.6992C20.8353 25.1562 20.4598 24.5981 20.1426 24.0254L22.6035 21.623C22.7845 21.4539 22.9067 21.2554 22.9707 21.0283C23.0345 20.8012 23.0423 20.5246 22.9932 20.1982L22.3486 16.8242C22.2913 16.5237 22.1472 16.2771 21.916 16.085C21.6849 15.8929 21.4069 15.7969 21.082 15.7969H17.0381Z" fill="white"></path></svg> 