<?xml version="1.0" encoding="UTF-8"?> <svg xmlns="http://www.w3.org/2000/svg" width="200" height="32" viewBox="0 0 200 32" fill="none"><path d="M0 0H6.21158L11.0278 18.8845H11.1178V0H15.5289V31.5493H10.4427L4.50114 8.51831H4.41112V31.5493H0V0Z" fill="white"></path><path d="M20.7844 0H27.4911L32.6224 31.5493H27.6711L26.7709 25.2845V25.3746H21.1445L20.2442 31.5493H15.6531L20.7844 0ZM26.1858 21.093L23.9802 5.49859H23.8902L21.7296 21.093H26.1858Z" fill="white"></path><path d="M34.579 4.50704H29.4027V0H44.7066V4.50704H39.5302V31.5493H34.579V4.50704Z" fill="white"></path><path d="M52.055 32C49.6544 32 47.8239 31.3239 46.5636 29.9718C45.3033 28.5897 44.6731 26.6216 44.6731 24.0676V0H49.6244V24.4282C49.6244 25.5099 49.8345 26.2911 50.2546 26.7718C50.7047 27.2526 51.3348 27.493 52.145 27.493C52.9552 27.493 53.5704 27.2526 53.9905 26.7718C54.4406 26.2911 54.6657 25.5099 54.6657 24.4282V0H59.4369V24.0676C59.4369 26.6216 58.8067 28.5897 57.5464 29.9718C56.2861 31.3239 54.4556 32 52.055 32Z" fill="white"></path><path d="M60.7127 0H68.0495C70.6002 0 72.4607 0.600939 73.631 1.80282C74.8013 2.97465 75.3864 4.79249 75.3864 7.25634V9.19437C75.3864 12.4695 74.3061 14.5427 72.1456 15.4141V15.5042C73.3459 15.8648 74.1861 16.6009 74.6662 17.7127C75.1764 18.8244 75.4314 20.3117 75.4314 22.1746V27.7183C75.4314 28.6197 75.4614 29.3559 75.5214 29.9268C75.5815 30.4676 75.7315 31.0085 75.9716 31.5493H70.9303C70.7502 31.0385 70.6302 30.5577 70.5702 30.107C70.5102 29.6563 70.4802 28.8451 70.4802 27.6732V21.9042C70.4802 20.462 70.2401 19.4554 69.76 18.8845C69.3099 18.3136 68.5147 18.0282 67.3744 18.0282H65.6639V31.5493H60.7127V0ZM67.4644 13.5211C68.4547 13.5211 69.1898 13.2657 69.67 12.7549C70.1801 12.2441 70.4352 11.3878 70.4352 10.1859V7.75211C70.4352 6.61033 70.2251 5.78404 69.805 5.27324C69.4149 4.76244 68.7847 4.50704 67.9145 4.50704H65.6639V13.5211H67.4644Z" fill="white"></path><path d="M80.4421 0H87.1488L92.2801 31.5493H87.3289L86.4286 25.2845V25.3746H80.8022L79.902 31.5493H75.3108L80.4421 0ZM85.8435 21.093L83.6379 5.49859H83.5479L81.3874 21.093H85.8435Z" fill="white"></path><path d="M100.395 0H107.565L110.762 22.6609H110.853L114.05 0H121.219V31.662H116.47V7.68934H116.379L112.725 31.662H108.524L104.871 7.68934H104.779V31.662H100.395V0Z" fill="white"></path><path d="M126.566 0H133.371L138.577 31.662H133.553L132.64 25.3748V25.4653H126.932L126.018 31.662H121.36L126.566 0ZM132.046 21.1683L129.809 5.51823H129.717L127.525 21.1683H132.046Z" fill="white"></path><path d="M138.73 0H146.174C148.762 0 150.649 0.603086 151.837 1.80926C153.024 2.98527 153.618 4.80961 153.618 7.28226V9.22721C153.618 12.514 152.522 14.5947 150.33 15.4691V15.5596C151.548 15.9215 152.4 16.6602 152.887 17.7759C153.405 18.8916 153.664 20.3843 153.664 22.2539V27.8173C153.664 28.7219 153.694 29.4607 153.755 30.0336C153.816 30.5764 153.968 31.1192 154.212 31.662H149.097C148.914 31.1494 148.792 30.6669 148.731 30.2146C148.671 29.7623 148.64 28.9481 148.64 27.7721V21.9825C148.64 20.5351 148.397 19.5249 147.909 18.952C147.453 18.379 146.646 18.0926 145.489 18.0926H143.754V31.662H138.73V0ZM145.58 13.5694C146.585 13.5694 147.331 13.3131 147.818 12.8005C148.336 12.2879 148.594 11.4285 148.594 10.2223V7.7798C148.594 6.63394 148.381 5.8047 147.955 5.29208C147.559 4.77945 146.92 4.52314 146.037 4.52314H143.754V13.5694H145.58Z" fill="white"></path><path d="M154.865 0H159.889V13.3433L166.282 0H171.306L165.323 11.6245L171.397 31.662H166.145L161.898 17.5498L159.889 21.5754V31.662H154.865V0Z" fill="white"></path><path d="M171.491 0H185.191V4.52314H176.514V12.8909H183.41V17.4141H176.514V27.1388H185.191V31.662H171.491V0Z" fill="white"></path><path d="M189.725 4.52314H184.473V0H200V4.52314H194.748V31.662H189.725V4.52314Z" fill="white"></path></svg> 