<?xml version="1.0" encoding="UTF-8"?> <svg xmlns="http://www.w3.org/2000/svg" width="50" height="50" viewBox="0 0 50 50" fill="none"><circle data-figma-bg-blur-radius="24" cx="25" cy="25" r="25" fill="white" fill-opacity="0.4"></circle><path d="M17.0719 33.2033C16.4422 33.2033 15.9056 32.9815 15.4621 32.538C15.0186 32.0945 14.7969 31.5579 14.7969 30.9283V19.0718C14.7969 18.4421 15.0186 17.9055 15.4621 17.462C15.9056 17.0185 16.4422 16.7968 17.0719 16.7968H32.9284C33.558 16.7968 34.0946 17.0185 34.5381 17.462C34.9816 17.9055 35.2034 18.4421 35.2034 19.0718V30.9283C35.2034 31.5579 34.9816 32.0945 34.5381 32.538C34.0946 32.9815 33.558 33.2033 32.9284 33.2033H17.0719ZM25.0001 26.257L32.9284 21.257V19.0718L25.0001 24.0718L17.0719 19.0718V21.257L25.0001 26.257Z" fill="white"></path><defs><clipPath id="bgblur_0_1083_12757_clip_path" transform="translate(24 24)"><circle cx="25" cy="25" r="25"></circle></clipPath></defs></svg> 